<svg width="24" height="24" viewBox="0 0 24 24" fill="none" xmlns="http://www.w3.org/2000/svg">
<g clip-path="url(#clip0_3_915)">
<path d="M8.99204 6.77661C8.88873 5.44975 9.88061 4.29037 11.2075 4.18706C12.5343 4.08376 13.6937 5.07564 13.797 6.4025C13.9003 7.72936 12.9084 8.88874 11.5816 8.99204V8.99204C9.22147 8.77086 6.84186 9.08505 4.62004 9.91123L4.40812 9.99003" stroke="white" stroke-width="1.5" stroke-linecap="round"/>
<path d="M10.4352 16.3873C10.7725 17.6747 12.0896 18.445 13.377 18.1076C14.6644 17.7703 15.4347 16.4532 15.0973 15.1658C14.76 13.8784 13.4429 13.1082 12.1555 13.4455V13.4455C9.89124 13.4567 7.6472 13.8725 5.52921 14.6732L5.05123 14.8539" stroke="white" stroke-width="1.5" stroke-linecap="round"/>
<path d="M16.1807 8.51285C16.1807 7.18198 17.2596 6.10309 18.5905 6.10309C19.9214 6.10309 21.0003 7.18198 21.0003 8.51285C21.0003 9.84372 19.9214 10.9226 18.5905 10.9226L12.0308 11.1994C9.49026 11.3066 6.97125 11.7137 4.52625 12.4123V12.4123" stroke="white" stroke-width="1.5" stroke-linecap="round"/>
</g>
<defs>
<clipPath id="clip0_3_915">
<rect width="24" height="24" fill="white"/>
</clipPath>
</defs>
</svg>
